<?xml version="1.0" encoding="utf-8"?>
<!-- Generator: Adobe Illustrator 19.1.0, SVG Export Plug-In . SVG Version: 6.00 Build 0)  -->
<!DOCTYPE svg PUBLIC "-//W3C//DTD SVG 1.1//EN" "http://www.w3.org/Graphics/SVG/1.1/DTD/svg11.dtd">
<svg version="1.1" xmlns="http://www.w3.org/2000/svg" xmlns:xlink="http://www.w3.org/1999/xlink" x="0px" y="0px" width="500px"
	 height="370px" viewBox="450 200 500 370" xml:space="preserve">
<g id="Layer_3" transform="scale(6) translate(-135, -75	)">
	<path fill="#608cee" d="M279.09381,126c-0.00674,0-0.01334,0-0.02005,0c-0.00174,0-0.00333,0-0.005,0H274v-3h-29v3h-3.73186
		c-0.00172,0-0.00333,0-0.00505,0c-0.00673,0-0.01332,0-0.02003,0c-2.87889,0-5.21274,2.12106-5.21274,5
		c0,2.87889,2.33385,5,5.21274,5c0.00671,0,0.01331,0,0.02003,0c0.00172,0,0.00333,0,0.00505,0H245v3h29v-3h5.06876
		c0.00168,0,0.00327,0,0.005,0c0.00671,0,0.01331,0,0.02005,0c2.87888,0,5.21271-2.12111,5.21271-5
		C284.30652,128.12106,281.97269,126,279.09381,126z"/>
	<g>
		<g>
			<line fill="#FFFFFF" x1="287.96155" y1="141.39104" x2="278.56265" y2="153.84163"/>
			<path fill="#222051" d="M278.56128,155.47559c-0.34277,0-0.68875-0.10724-0.983-0.33
				c-0.72064-0.54352-0.86362-1.56831-0.31979-2.28865l9.39905-12.45045c0.54321-0.72,1.56897-0.86395,2.28833-0.31947
				c0.72064,0.54352,0.86362,1.56831,0.31979,2.28865l-9.39905,12.45045
				C279.54553,155.25154,279.05661,155.47559,278.56128,155.47559z"/>
		</g>
		<g>
			<line fill="#FFFFFF" x1="287.75729" y1="139.84355" x2="272.47421" y2="123.60836"/>
			<path fill="#222051" d="M287.75797,141.80437c-0.52213,0-1.04236-0.20682-1.42853-0.61693l-15.28293-16.23528
				c-0.74234-0.78831-0.70468-2.02949,0.08362-2.77184c0.79022-0.74203,2.02982-0.70469,2.77216,0.08394l15.28293,16.23529
				c0.74237,0.78831,0.70471,2.0295-0.08362,2.77184C288.72244,141.62756,288.2399,141.80437,287.75797,141.80437z"/>
		</g>
		<g>
			<g>
				<path fill="#222051" d="M267.86423,157.93799c-0.37723-0.37723-0.98883-0.37723-1.36606,0l0,0
					c-0.37723,0.37721-0.37723,0.98882,0,1.36604l3.94638,3.94638c0.3772,0.37723,0.9888,0.37723,1.36603,0l0,0
					c0.37723-0.37723,0.37723-0.98883,0-1.36606L267.86423,157.93799z"/>
			</g>
			<g>
				<path fill="#222051" d="M266.49817,150.67735c-0.37723,0.37721-0.37723,0.98882,0,1.36604l0,0
					c0.37723,0.37723,0.98883,0.37723,1.36606,0l3.94635-3.94637c0.37723-0.37723,0.37723-0.98883,0-1.36606l0,0
					c-0.37723-0.37723-0.98883-0.37723-1.36603,0L266.49817,150.67735z"/>
			</g>
			<g>
				<path fill="#222051" d="M275.77719,154.23738c0.52512,0.52515,1.37656,0.52515,1.90167,0l0,0
					c0.52515-0.52513,0.52515-1.37656,0-1.90169l-5.49377-5.49379c-0.52515-0.52513-1.37656-0.52513-1.9017,0l0,0
					c-0.52512,0.52515-0.52512,1.37656,0,1.9017L275.77719,154.23738z"/>
			</g>
			<g>
				<path fill="#222051" d="M277.67886,157.48325c0.52515-0.52515,0.52515-1.37656,0-1.9017l0,0
					c-0.52512-0.52513-1.37656-0.52513-1.90167,0l-5.4938,5.49379c-0.52512,0.52513-0.52512,1.37656,0,1.90169l0,0
					c0.52515,0.52515,1.37656,0.52515,1.9017,0L277.67886,157.48325z"/>
			</g>
			<g>
				<g>
					<g>
						<circle fill="#FFFFFF" cx="278.07272" cy="155.1877" r="3.39336"/>
					</g>
					<g>
						<path fill="#222051" d="M278.07297,159.55659L278.07297,159.55659c-0.00641,0-0.05682-0.00046-0.06323-0.00046
							c-1.16656-0.01695-2.25705-0.48706-3.06989-1.32419c-0.81375-0.83665-1.2518-1.94044-1.23529-3.10747
							c0.03299-2.37344,1.99222-4.30565,4.36749-4.30565c2.4715,0.03482,4.40326,2.02246,4.36935,4.4312
							C282.40656,157.62485,280.44733,159.55659,278.07297,159.55659z M278.08829,154.10579
							c-0.60382,0-1.08896,0.47809-1.09726,1.06596c-0.00446,0.28947,0.10406,0.56299,0.30576,0.77011
							c0.20108,0.20746,0.47107,0.32362,0.76022,0.32777l0.01596,0.00032c0.58789,0,1.07364-0.47873,1.08194-1.06693
							C279.16321,154.60686,278.68512,154.11407,278.08829,154.10579L278.08829,154.10579z"/>
					</g>
				</g>
			</g>
		</g>
		<g>
			<path fill="#608cee" d="M270.90955,153.1676c0-1.02548-0.8313-1.85681-1.85678-1.85681h-3.71362
				c-1.02548,0-1.85678,0.83133-1.85678,1.85681v3.71361c0,1.02548,0.8313,1.8568,1.85678,1.8568h3.71362
				c1.02548,0,1.85678-0.83131,1.85678-1.8568V153.1676z"/>
		</g>
		<g>
			<g>
				<g>
					<circle fill="#FFFFFF" cx="287.75729" cy="141.38608" r="3.39336"/>
				</g>
			</g>
		</g>
		<path fill="#222051" d="M287.75729,145.75494L287.75729,145.75494c-0.00641,0-0.05682-0.00046-0.06323-0.00046
			c-1.16656-0.01695-2.25708-0.48706-3.06992-1.32417c-0.81375-0.83667-1.25177-1.94044-1.23529-3.10747
			c0.03299-2.37344,1.99225-4.30565,4.36752-4.30565c2.4715,0.03482,4.40323,2.02246,4.36932,4.43118
			C292.09088,143.82321,290.13165,145.75494,287.75729,145.75494z M287.77261,140.30414c-0.60385,0-1.08896,0.4781-1.09726,1.06598
			c-0.00446,0.28947,0.10403,0.56299,0.30576,0.77011c0.20105,0.20744,0.47107,0.32362,0.76022,0.32777l0.01596,0.00032
			c0.58786,0,1.07361-0.47873,1.08191-1.06693C288.8475,140.80522,288.36942,140.31244,287.77261,140.30414L287.77261,140.30414z"/>
	</g>
	<g>
		<g>
			<line fill="#FFFFFF" x1="214.35718" y1="137.64334" x2="226.08383" y2="147.93126"/>
			<path fill="#222051" d="M226.08334,149.5652c-0.38266,0-0.76692-0.13341-1.07715-0.40564l-11.72693-10.28789
				c-0.67821-0.59521-0.74586-1.62767-0.15065-2.3062c0.59554-0.67851,1.62769-0.74554,2.3062-0.15063l11.72694,10.28789
				c0.67819,0.59521,0.74586,1.62767,0.15063,2.30618C226.98941,149.37691,226.53749,149.5652,226.08334,149.5652z"/>
		</g>
		<g>
			<line fill="#FFFFFF" x1="214.35718" y1="137.64334" x2="232.37653" y2="124.51107"/>
			<path fill="#222051" d="M214.35863,139.60413c-0.60542,0-1.20256-0.27925-1.58618-0.80586
				c-0.63799-0.87543-0.44554-2.10193,0.42958-2.73959l18.01935-13.13217c0.87576-0.63799,2.10258-0.44522,2.73961,0.42957
				c0.63799,0.87543,0.44554,2.10194-0.42958,2.73961l-18.01935,13.13216
				C215.16354,139.48189,214.75917,139.60413,214.35863,139.60413z"/>
		</g>
		<g>
			<g>
				<path fill="#222051" d="M236.29234,150.68155c0.37723-0.37723,0.98883-0.37723,1.36606,0l0,0
					c0.37723,0.37723,0.37723,0.98883,0,1.36604l-3.94638,3.94638c-0.37723,0.37723-0.98883,0.37723-1.36604,0l0,0
					c-0.37723-0.37723-0.37723-0.98883,0-1.36606L236.29234,150.68155z"/>
			</g>
			<g>
				<path fill="#222051" d="M237.6584,143.42091c0.37723,0.37721,0.37723,0.98882,0,1.36604l0,0
					c-0.37723,0.37723-0.98883,0.37723-1.36606,0l-3.94637-3.94637c-0.37723-0.37723-0.37723-0.98883,0-1.36606l0,0
					c0.37721-0.37723,0.98882-0.37723,1.36604,0L237.6584,143.42091z"/>
			</g>
			<g>
				<path fill="#222051" d="M228.37938,146.98094c-0.52513,0.52515-1.37656,0.52515-1.90169,0l0,0
					c-0.52515-0.52513-0.52515-1.37656,0-1.90169l5.49377-5.49379c0.52515-0.52513,1.37656-0.52513,1.9017,0l0,0
					c0.52513,0.52515,0.52513,1.37656,0,1.9017L228.37938,146.98094z"/>
			</g>
			<g>
				<path fill="#222051" d="M226.47769,150.22681c-0.52515-0.52515-0.52515-1.37656,0-1.9017l0,0
					c0.52513-0.52513,1.37656-0.52513,1.90169,0l5.49379,5.49379c0.52513,0.52515,0.52513,1.37656,0,1.9017l0,0
					c-0.52515,0.52513-1.37656,0.52513-1.9017,0L226.47769,150.22681z"/>
			</g>
			<g>
				<g>
					<g>
						<circle fill="#FFFFFF" cx="226.08383" cy="147.93126" r="3.39336"/>
					</g>
				</g>
			</g>
			<path fill="#222051" d="M226.08383,152.30014L226.08383,152.30014c-0.00642,0-0.05682-0.00046-0.06323-0.00046
				c-1.16656-0.01695-2.25706-0.48706-3.0699-1.32419c-0.81375-0.83665-1.25179-1.94044-1.23529-3.10747
				c0.03299-2.37344,1.99222-4.30565,4.36749-4.30565c2.47151,0.03482,4.40324,2.02246,4.36934,4.4312
				C230.41742,150.36839,228.45819,152.30014,226.08383,152.30014z M226.09914,146.84933
				c-0.60384,0-1.08894,0.47809-1.09724,1.06596c-0.00447,0.28947,0.10405,0.56299,0.30576,0.77011
				c0.20107,0.20746,0.47107,0.32362,0.76022,0.32777l0.01595,0.00032c0.58789,0,1.07364-0.47873,1.08194-1.06693
				C227.17404,147.3504,226.69595,146.85762,226.09914,146.84933L226.09914,146.84933z"/>
		</g>
		<g>
			<path fill="#608cee" d="M233.24699,145.91116c0-1.02548,0.83133-1.8568,1.85681-1.8568h3.71361
				c1.02548,0,1.8568,0.83131,1.8568,1.8568v3.71361c0,1.02548-0.83131,1.8568-1.8568,1.8568h-3.71361
				c-1.02548,0-1.85681-0.83131-1.85681-1.8568V145.91116z"/>
		</g>
		<g>
			<g>
				<g>
					<circle fill="#FFFFFF" cx="214.35718" cy="137.64357" r="3.39336"/>
				</g>
			</g>
		</g>
		<path fill="#222051" d="M214.35718,142.01245L214.35718,142.01245c-0.00641,0-0.05681-0.00046-0.06323-0.00046
			c-1.16656-0.01695-2.25706-0.48706-3.0699-1.32417c-0.81375-0.83667-1.25179-1.94046-1.23529-3.10747
			c0.03299-2.37346,1.99223-4.30565,4.36751-4.30565c2.4715,0.03482,4.40324,2.02246,4.36934,4.43118
			C218.69078,140.0807,216.73154,142.01245,214.35718,142.01245z M214.3725,136.56165c-0.60384,0-1.08894,0.47809-1.09724,1.06598
			c-0.00447,0.28946,0.10403,0.56297,0.30574,0.77011c0.20107,0.20744,0.47107,0.32362,0.76022,0.32777l0.01596,0.00032
			c0.58788,0,1.07362-0.47873,1.08192-1.06694C215.4474,137.06271,214.96931,136.56995,214.3725,136.56165L214.3725,136.56165z"/>
	</g>
	<g>
		<path fill="#FFFFFF" d="M258.2608,128.99001c-0.36911,0-0.63489-0.29921-0.63489-0.6683v-9.08885
			c0-0.36909,0.26578-0.6683,0.63489-0.6683h13.36118c0.00174,0,0.00333,0.00049,0.00504,0.0005
			c0.00671-0.00002,0.01331-0.0005,0.02005-0.0005c2.87891,0,5.21271,2.33381,5.21271,5.21272s-2.3338,5.21273-5.21271,5.21273
			c-0.00674,0-0.01334-0.00049-0.02005-0.00052c-0.00171,0.00003-0.0033,0.00052-0.00504,0.00052H258.2608z"/>
		<path fill="#222051" d="M271.64716,130.29732c-0.0083-0.00032-0.0166-0.00063-0.0249,0h-13.36163
			c-1.08896,0-1.94171-0.86777-1.94171-1.97556v-9.08882c0-1.10777,0.85275-1.97556,1.94171-1.97556h13.36163
			c0.01022,0,0.02042,0,0.03064,0.00032c3.60388,0.0134,6.51392,2.93301,6.51392,6.51965
			C278.16681,127.37261,275.2421,130.29732,271.64716,130.29732z M258.93338,127.68282h12.65314
			c0.0249-0.00063,0.04788-0.00095,0.07913,0c2.14471-0.00989,3.88666-1.75821,3.88666-3.90546
			c0-2.15364-1.75214-3.90547-3.90515-3.90547c-0.00766,0-0.01596,0-0.0249-0.00032v0.00032h-12.68887V127.68282z"/>
	</g>
	<circle fill="#222051" cx="271.5928" cy="123.77728" r="1.37126"/>
	<g>
		<path fill="#FFFFFF" d="M247.18257,118.56455c0.36908,0,0.63487,0.29921,0.63487,0.6683v9.08885
			c0,0.36909-0.26579,0.6683-0.63487,0.6683h-13.36121c-0.00172,0-0.0033-0.00049-0.00502-0.00052
			c-0.00671,0.00003-0.01332,0.00052-0.02003,0.00052c-2.87891,0-5.21272-2.33382-5.21272-5.21273s2.33382-5.21272,5.21272-5.21272
			c0.00671,0,0.01332,0.00048,0.02003,0.0005c0.00172-0.00002,0.0033-0.0005,0.00502-0.0005H247.18257z"/>
		<path fill="#222051" d="M247.18251,130.29732h-13.36099c-0.01437,0-0.02905-0.00032-0.04341-0.00063
			c-3.59781-0.01979-6.50177-2.93685-6.50177-6.51933c0-3.59525,2.92471-6.51997,6.51996-6.51997v0.00032
			c0.00862-0.00032,0.01692-0.00032,0.02522-0.00032h13.36099c1.08928,0,1.94205,0.86778,1.94205,1.97556v9.08882
			C249.12456,129.42955,248.27179,130.29732,247.18251,130.29732z M233.81577,119.87221c-2.17343,0-3.92494,1.75182-3.92494,3.90515
			c0,2.15364,1.75183,3.90546,3.90547,3.90546c0.0083,0,0.0166,0,0.02522,0.00032v-0.00032h12.68854v-7.81094h-12.66524
			c-0.00958,0.00032-0.01915,0.00032-0.02841,0.00032H233.81577z"/>
	</g>
	<g>
		<rect x="238.48079" y="115.99348" fill="#302C58" width="28.29765" height="16.13463"/>
		<path fill="#222051" d="M266.77817,133.43523h-28.29735c-0.72192,0-1.30725-0.58533-1.30725-1.30725v-16.13443
			c0-0.72192,0.58533-1.30725,1.30725-1.30725h28.29735c0.72192,0,1.30725,0.58533,1.30725,1.30725v16.13443
			C268.08542,132.8499,267.50009,133.43523,266.77817,133.43523z M239.78807,130.82074h25.68285V117.3008h-25.68285V130.82074z"/>
	</g>
	<g>
		<g>
			<path fill="#608cee" d="M251.10139,129.09666c-0.12128,0-0.24448-0.02266-0.36385-0.07053
				c-0.50298-0.20107-0.74745-0.77139-0.54639-1.27438l2.92918-7.32519c0.20107-0.50267,0.77235-0.7465,1.27406-0.54607
				c0.50298,0.20107,0.74745,0.77139,0.54639,1.27438l-2.92918,7.3252C251.85841,128.86337,251.49011,129.09666,251.10139,129.09666
				z"/>
		</g>
		<g>
			<g>
				<path fill="#608cee" d="M257.46146,128.20624c-0.25085,0-0.50171-0.09575-0.69321-0.28724
					c-0.38297-0.38267-0.38297-1.00374,0-1.3864l2.70386-2.70386c0.383-0.38299,1.00342-0.38299,1.38641,0
					c0.383,0.38266,0.383,1.00373,0,1.3864l-2.70386,2.70386C257.96317,128.11049,257.71231,128.20624,257.46146,128.20624z"/>
			</g>
			<g>
				<path fill="#608cee" d="M260.16531,125.50237c-0.25085,0-0.50171-0.09574-0.69321-0.28723l-2.70386-2.70387
					c-0.38297-0.38266-0.38297-1.00373,0-1.3864c0.383-0.38298,1.00342-0.38298,1.38641,0l2.70386,2.70387
					c0.383,0.38266,0.383,1.00373,0,1.3864C260.66702,125.40663,260.41617,125.50237,260.16531,125.50237z"/>
			</g>
		</g>
		<g>
			<g>
				<path fill="#608cee" d="M245.04706,125.50237c-0.25084,0-0.50169-0.09574-0.69319-0.28723
					c-0.38298-0.38267-0.38298-1.00374,0-1.3864l2.70386-2.70387c0.38298-0.38298,1.00342-0.38298,1.3864,0
					c0.38298,0.38267,0.38298,1.00374,0,1.3864l-2.70386,2.70387C245.54877,125.40663,245.29791,125.50237,245.04706,125.50237z"/>
			</g>
			<g>
				<path fill="#608cee" d="M247.75093,128.20624c-0.25085,0-0.50172-0.09575-0.69321-0.28724l-2.70386-2.70386
					c-0.38298-0.38267-0.38298-1.00374,0-1.3864c0.38298-0.38299,1.00342-0.38299,1.3864,0l2.70386,2.70386
					c0.38298,0.38266,0.38298,1.00373,0,1.3864C248.25264,128.11049,248.00179,128.20624,247.75093,128.20624z"/>
			</g>
		</g>
	</g>
	<circle fill="#222051" cx="233.85057" cy="123.77728" r="1.37126"/>
	<g>
		<path fill="#222051" d="M266.77817,112.38195h-13.3644c-0.72192,0-1.30725-0.58533-1.30725-1.30725
			s0.58533-1.30724,1.30725-1.30724h13.3644c0.72192,0,1.30725,0.58532,1.30725,1.30724S267.50009,112.38195,266.77817,112.38195z"
			/>
	</g>
</g>
</svg>
