<?xml version="1.0" standalone="no"?><!DOCTYPE svg PUBLIC "-//W3C//DTD SVG 1.1//EN" "http://www.w3.org/Graphics/SVG/1.1/DTD/svg11.dtd"><svg t="1550301291174" class="icon" style="" viewBox="0 0 1024 1024" version="1.1" xmlns="http://www.w3.org/2000/svg" p-id="1344" xmlns:xlink="http://www.w3.org/1999/xlink" width="200" height="200"><defs><style type="text/css"></style></defs><path d="M927.59944 116.871801 93.243661 116.871801c-15.753799 0-28.40084 12.638855-28.40084 28.350698l0 735.378533c0 15.503089 12.647041 28.217668 28.40084 28.217668l834.356802 0c15.627932 0 28.258601-12.71458 28.258601-28.217668l0-735.378533C955.85804 129.510656 943.228395 116.871801 927.59944 116.871801zM899.374608 826.105884 312.196395 826.105884c-6.715959 16.72287-23.038716 28.643364-42.468231 28.643364-18.99461 0-35.283598-11.920494-42.049698-28.643364L121.476679 826.105884l0-34.172287L227.679489 791.933597c6.766101-16.83134 23.055089-28.609595 42.049698-28.609595 19.429515 0 35.751249 11.778254 42.468231 28.609595l587.17719 0L899.374608 826.105884zM899.374608 710.88263l-777.896906 0L121.477702 173.448354l777.896906 0L899.374608 710.88263z" p-id="1345"></path><path d="M633.784694 428.921863c14.360056 8.17724 14.360056 21.626553 0 29.971615L422.240697 581.090565c-14.267958 8.236592-25.978674 1.528819-25.978674-14.902408L396.262022 321.800124c0-16.455787 11.828396-23.196305 25.978674-14.918781L633.784694 428.921863z" p-id="1346"></path></svg>