<?xml version="1.0" encoding="utf-8"?>
<!-- Generator: Adobe Illustrator 19.1.0, SVG Export Plug-In . SVG Version: 6.00 Build 0)  -->
<!DOCTYPE svg PUBLIC "-//W3C//DTD SVG 1.1//EN" "http://www.w3.org/Graphics/SVG/1.1/DTD/svg11.dtd">
<svg version="1.1" xmlns="http://www.w3.org/2000/svg" xmlns:xlink="http://www.w3.org/1999/xlink" x="0px" y="0px" width="500px"
	 height="370px" viewBox="227 220 500 370" xml:space="preserve">
<g id="Layer_7" transform="scale(7.8) translate(-200, -192)">
	<g>
		<path fill="#608cee" d="M237,237h39.94168c1.77869,0,2.05832,1.94733,2.05832,3.55499V268h-42V237z"/>
	</g>
	<g>
		<g>
			<path fill="#302C58" d="M230,231h40.40543c1.77872,0,2.59457,1.41109,2.59457,3.01875V262h-43V231z"/>
			<path fill="#222051" d="M273.04608,263H230.5605c-0.72191,0-1.5605-0.53012-1.5605-1.25204v-30.72037
				c0-0.72191,0.83859-1.02759,1.5605-1.02759h39.84492c2.32471,0,4.59457,1.48781,4.59457,4.01869v27.72926
				C275,262.46988,273.76801,263,273.04608,263z M232,260h40v-25.98131c0-0.62872-0.43414-1.01869-1.59457-1.01869H232V260z"/>
		</g>
		<g>
			<g>
				<line fill="#302C58" x1="230" y1="222" x2="230" y2="262"/>
				<path fill="#222051" d="M230.5,263.05518c-0.72192,0-1.5-0.5853-1.5-1.30722v-39.87111c0-0.72191,0.77808-1.30724,1.5-1.30724
					s1.5,0.58533,1.5,1.30724v39.87111C232,262.46988,231.22192,263.05518,230.5,263.05518z"/>
			</g>
			<g>
				<path fill="#222051" d="M273.5,263.05518c-0.72192,0-1.5-0.5853-1.5-1.30722v-27.72926
					c0-1.68385-1.06351-1.01869-1.59457-1.01869H230.5605c-0.72191,0-1.30724-0.77808-1.30724-1.5s0.58533-1.5,1.30724-1.5h39.84492
					c2.43512,0,4.59457,1.36749,4.59457,4.01869v27.72926C275,262.46988,274.22192,263.05518,273.5,263.05518z"/>
			</g>
			<g>
				<line fill="#302C58" x1="273" y1="262" x2="230" y2="262"/>
				<path fill="#222051" d="M273.04608,263H230.5605c-0.72191,0-1.30724-0.77808-1.30724-1.5s0.58533-1.5,1.30724-1.5h42.48558
					c0.72192,0,1.30725,0.77808,1.30725,1.5S273.76801,263,273.04608,263z"/>
			</g>
			<g>
				<g>
					<g>
						<circle fill="#222051" cx="230.55272" cy="261.59839" r="2.47332"/>
					</g>
				</g>
			</g>
			<g>
				<g>
					<g>
						<circle fill="#222051" cx="273.04608" cy="261.59839" r="2.47332"/>
					</g>
				</g>
			</g>
			<g>
				<g>
					<g>
						<circle fill="#222051" cx="230.55272" cy="231.06276" r="2.47332"/>
					</g>
				</g>
			</g>
		</g>
		<g>
			<g>
				<path fill="#608cee" d="M267.93454,236.51382h-12.21268c-0.54129,0-0.98044-0.43883-0.98044-0.98044
					c0-0.5416,0.43915-0.98044,0.98044-0.98044h12.21268c0.54129,0,0.98044,0.43884,0.98044,0.98044
					C268.91498,236.075,268.47583,236.51382,267.93454,236.51382z"/>
			</g>
			<g>
				<path fill="#222051" d="M244.68396,259.67984c-3.25247,0-6.31059-1.26672-8.61041-3.56653
					c-4.74771-4.74773-4.74771-12.47313,0-17.22052c2.29982-2.29982,5.35794-3.56653,8.61041-3.56653
					c3.25249,0,6.31061,1.26671,8.61043,3.56653c4.7477,4.74739,4.7477,12.47279,0,17.22052
					C250.99457,258.41312,247.93645,259.67984,244.68396,259.67984z M244.68396,237.94077
					c-2.55417,0-4.95547,0.9948-6.76189,2.80055c-3.72801,3.72835-3.72801,9.7948,0,13.52345
					c1.80641,1.80576,4.20772,2.80057,6.76189,2.80057c2.55418,0,4.95549-0.99481,6.76189-2.80057
					c3.72835-3.72865,3.72835-9.7951,0-13.52345C249.63945,238.93556,247.23814,237.94077,244.68396,237.94077z"/>
			</g>
			<g>
				<path fill="#FFFFFF" d="M244.7545,251.73868c-1.08607,0-2.17183-0.4133-2.99876-1.23959l-0.69319-0.69319l1.38608-1.38672
					l0.69351,0.69289c0.88916,0.88916,2.33556,0.88916,3.22472,0c0.43054-0.43054,0.66768-1.0031,0.66768-1.61205
					c0-0.60927-0.23714-1.1815-0.66768-1.61205c-0.88979-0.88979-2.3362-0.88947-3.22472-0.00032l-0.69319,0.69321l-1.3864-1.3864
					l0.69319-0.69321c1.65321-1.65384,4.34431-1.65384,5.99751,0c0.80107,0.80077,1.24214,1.86577,1.24214,2.99876
					c0,1.13268-0.44107,2.19768-1.24214,2.99876C246.92665,251.32538,245.84058,251.73868,244.7545,251.73868z"/>
			</g>
			<g>
				<path fill="#608cee" d="M244.68396,255.85863c-4.60728,0-8.35573-3.74846-8.35573-8.35574s3.74844-8.35573,8.35573-8.35573
					c4.6076,0,8.35574,3.74844,8.35574,8.35573v0.98044h-1.96088v-0.98044c0-3.526-2.86887-6.39485-6.39487-6.39485
					c-3.52599,0-6.39485,2.86885-6.39485,6.39485s2.86887,6.39487,6.39485,6.39487c1.6947,0,3.29143-0.65619,4.49655-1.84758
					l0.69702-0.68936l1.37874,1.39438l-0.69702,0.68904C248.98454,255.00137,246.89824,255.85863,244.68396,255.85863z"/>
			</g>
			<g>
				<path fill="#608cee" d="M267.81711,241h-4.57538c-0.54129,0-0.98044-0.4584-0.98044-1s0.43915-1,0.98044-1h4.57538
					c0.54126,0,0.98044,0.4584,0.98044,1S268.35837,241,267.81711,241z"/>
			</g>
			<g>
				<path fill="#608cee" d="M249.41093,242.82475c-0.25085,0-0.50171-0.09575-0.69321-0.28725
					c-0.38298-0.38266-0.38298-1.00372,0-1.3864l6.31093-6.31091c0.38298-0.38298,1.00342-0.38298,1.38641,0
					c0.38297,0.38266,0.38297,1.00374,0,1.3864l-6.31094,6.31091C249.91264,242.729,249.66179,242.82475,249.41093,242.82475z"/>
			</g>
		</g>
	</g>
	<g>
		<path fill="#222051" d="M268.211,227.71529h-21.36438c-0.72192,0-1.30725-0.58533-1.30725-1.30725
			s0.58533-1.30725,1.30725-1.30725H268.211c0.72192,0,1.30725,0.58533,1.30725,1.30725S268.93292,227.71529,268.211,227.71529z"/>
	</g>
	<g>
		<path fill="#222051" d="M274.54434,227.71529h-1.36438c-0.72192,0-1.30725-0.58533-1.30725-1.30725
			s0.58533-1.30725,1.30725-1.30725h1.36438c0.72192,0,1.30725,0.58533,1.30725,1.30725S275.26627,227.71529,274.54434,227.71529z"
			/>
	</g>
</g>
</svg>
